HIERARCHY
ROOT Hips
{
	OFFSET 0.000000 35.082581 0.000000
	CHANNELS 6 Xposition Yposition Zposition Xrotation Yrotation Zrotation 
	JOINT Spine
	{
		OFFSET 0.000000 6.876099 0.125700
		CHANNELS 3 Xrotation Yrotation Zrotation
		JOINT Spine1
		{
			OFFSET 0.000000 5.730043 0.104720
			CHANNELS 3 Xrotation Yrotation Zrotation
			JOINT Spine1_split
			{
				OFFSET 0.000000 5.730043 0.104720
				CHANNELS 3 Xrotation Yrotation Zrotation
				JOINT Spine2
				{
					OFFSET 0.000000 5.730043 0.104720
					CHANNELS 3 Xrotation Yrotation Zrotation
					JOINT Neck
					{
						OFFSET 0.000000 10.314075 0.188496
						CHANNELS 3 Xrotation Yrotation Zrotation
						JOINT Head
						{
							OFFSET 0.000000 7.643700 -2.377400
							CHANNELS 3 Xrotation Yrotation Zrotation
							JOINT HeadTop_End
							{
								OFFSET 0.000000 43.788605 -13.619600
								CHANNELS 3 Xrotation Yrotation Zrotation
								End Site
								{
									OFFSET 0.000000 0.000000 0.000000
								}
							}
						}
					}
					JOINT LeftShoulder
					{
						OFFSET 2.196100 4.412489 0.087492
						CHANNELS 3 Xrotation Yrotation Zrotation
						JOINT LeftShoulder_split
						{
							OFFSET 2.196100 4.412489 0.087492
							CHANNELS 3 Xrotation Yrotation Zrotation
							JOINT LeftArm
							{
								OFFSET 8.771219 -2.981674 -0.026999
								CHANNELS 3 Xrotation Yrotation Zrotation
								JOINT LeftForeArm
								{
									OFFSET 8.512804 0.000000 -0.000000
									CHANNELS 3 Xrotation Yrotation Zrotation
									JOINT LeftHand
									{
										OFFSET 18.484802 0.000000 -0.000000
										CHANNELS 3 Xrotation Yrotation Zrotation
										JOINT LeftHandThumb1
										{
											OFFSET 2.499420 -1.158070 2.653252
											CHANNELS 3 Xrotation Yrotation Zrotation
											JOINT LeftHandThumb2
											{
												OFFSET 2.370079 -1.368366 1.368366
												CHANNELS 3 Xrotation Yrotation Zrotation
												JOINT LeftHandThumb3
												{
													OFFSET 2.676727 -1.545410 1.545409
													CHANNELS 3 Xrotation Yrotation Zrotation
													JOINT LeftHandThumb4
													{
														OFFSET 1.692226 -0.977005 0.977007
														CHANNELS 3 Xrotation Yrotation Zrotation
														End Site
														{
															OFFSET 0.000000 0.000000 0.000000
														}
													}
												}
											}
										}
										JOINT LeftHandIndex1
										{
											OFFSET 7.924831 -0.457527 2.345128
											CHANNELS 3 Xrotation Yrotation Zrotation
											JOINT LeftHandIndex2
											{
												OFFSET 3.643303 0.000000 0.000000
												CHANNELS 3 Xrotation Yrotation Zrotation
												JOINT LeftHandIndex3
												{
													OFFSET 3.810799 0.000000 0.000000
													CHANNELS 3 Xrotation Yrotation Zrotation
													JOINT LeftHandIndex4
													{
														OFFSET 2.403702 0.000000 0.000000
														CHANNELS 3 Xrotation Yrotation Zrotation
														End Site
														{
															OFFSET 0.000000 0.000000 0.000000
														}
													}
												}
											}
										}
										JOINT LeftHandMiddle1
										{
											OFFSET 8.563995 0.000000 -0.000000
											CHANNELS 3 Xrotation Yrotation Zrotation
											JOINT LeftHandMiddle2
											{
												OFFSET 3.861618 0.000000 0.000000
												CHANNELS 3 Xrotation Yrotation Zrotation
												JOINT LeftHandMiddle3
												{
													OFFSET 3.701603 0.000000 0.000000
													CHANNELS 3 Xrotation Yrotation Zrotation
													JOINT LeftHandMiddle4
													{
														OFFSET 2.322544 0.000000 0.000000
														CHANNELS 3 Xrotation Yrotation Zrotation
														End Site
														{
															OFFSET 0.000000 0.000000 0.000000
														}
													}
												}
											}
										}
										JOINT LeftHandRing1
										{
											OFFSET 8.426460 -0.424637 -3.286992
											CHANNELS 3 Xrotation Yrotation Zrotation
											JOINT LeftHandRing2
											{
												OFFSET 3.126408 0.000000 0.000000
												CHANNELS 3 Xrotation Yrotation Zrotation
												JOINT LeftHandRing3
												{
													OFFSET 3.085026 0.000000 0.000000
													CHANNELS 3 Xrotation Yrotation Zrotation
													JOINT LeftHandRing4
													{
														OFFSET 1.644005 0.000000 0.000000
														CHANNELS 3 Xrotation Yrotation Zrotation
														End Site
														{
															OFFSET 0.000000 0.000000 0.000000
														}
													}
												}
											}
										}
									}
								}
							}
						}
					}
					JOINT RightShoulder
					{
						OFFSET -2.196100 4.412496 0.070690
						CHANNELS 3 Xrotation Yrotation Zrotation
						JOINT RightShoulder_split
						{
							OFFSET -2.196100 4.412496 0.070690
							CHANNELS 3 Xrotation Yrotation Zrotation
							JOINT RightArm
							{
								OFFSET -8.771282 -2.981682 -0.094208
								CHANNELS 3 Xrotation Yrotation Zrotation
								JOINT RightForeArm
								{
									OFFSET -8.494598 0.000000 0.000000
									CHANNELS 3 Xrotation Yrotation Zrotation
									JOINT RightHand
									{
										OFFSET -18.483803 0.000000 0.000001
										CHANNELS 3 Xrotation Yrotation Zrotation
										JOINT RightHandThumb1
										{
											OFFSET -2.527351 -1.008072 2.575253
											CHANNELS 3 Xrotation Yrotation Zrotation
											JOINT RightHandThumb2
											{
												OFFSET -2.321518 -1.340328 1.340329
												CHANNELS 3 Xrotation Yrotation Zrotation
												JOINT RightHandThumb3
												{
													OFFSET -2.657753 -1.534454 1.534455
													CHANNELS 3 Xrotation Yrotation Zrotation
													JOINT RightHandThumb4
													{
														OFFSET -1.807510 -1.043568 1.043567
														CHANNELS 3 Xrotation Yrotation Zrotation
														End Site
														{
															OFFSET 0.000000 0.000000 0.000000
														}
													}
												}
											}
										}
										JOINT RightHandIndex1
										{
											OFFSET -8.811420 0.015533 2.887987
											CHANNELS 3 Xrotation Yrotation Zrotation
											JOINT RightHandIndex2
											{
												OFFSET -3.537502 0.000000 0.000000
												CHANNELS 3 Xrotation Yrotation Zrotation
												JOINT RightHandIndex3
												{
													OFFSET -3.356201 0.000000 0.000000
													CHANNELS 3 Xrotation Yrotation Zrotation
													JOINT RightHandIndex4
													{
														OFFSET -1.933098 0.000000 0.000000
														CHANNELS 3 Xrotation Yrotation Zrotation
														End Site
														{
															OFFSET 0.000000 0.000000 0.000000
														}
													}
												}
											}
										}
										JOINT RightHandMiddle1
										{
											OFFSET -8.178135 0.000000 0.000000
											CHANNELS 3 Xrotation Yrotation Zrotation
											JOINT RightHandMiddle2
											{
												OFFSET -3.901302 0.000000 0.000000
												CHANNELS 3 Xrotation Yrotation Zrotation
												JOINT RightHandMiddle3
												{
													OFFSET -3.909599 0.000000 0.000000
													CHANNELS 3 Xrotation Yrotation Zrotation
													JOINT RightHandMiddle4
													{
														OFFSET -2.376003 0.000000 0.000000
														CHANNELS 3 Xrotation Yrotation Zrotation
														End Site
														{
															OFFSET 0.000000 0.000000 0.000000
														}
													}
												}
											}
										}
										JOINT RightHandRing1
										{
											OFFSET -7.559013 0.014137 -2.865403
											CHANNELS 3 Xrotation Yrotation Zrotation
											JOINT RightHandRing2
											{
												OFFSET -3.449306 0.000000 0.000000
												CHANNELS 3 Xrotation Yrotation Zrotation
												JOINT RightHandRing3
												{
													OFFSET -3.362106 0.000000 0.000000
													CHANNELS 3 Xrotation Yrotation Zrotation
													JOINT RightHandRing4
													{
														OFFSET -2.076401 0.000000 0.000000
														CHANNELS 3 Xrotation Yrotation Zrotation
														End Site
														{
															OFFSET 0.000000 0.000000 0.000000
														}
													}
												}
											}
										}
									}
								}
							}
						}
					}
				}
			}
		}
	}
	JOINT LeftUpLeg
	{
		OFFSET 10.205400 -3.823500 0.155100
		CHANNELS 3 Xrotation Yrotation Zrotation
		JOINT LeftLeg
		{
			OFFSET 0.708757 -12.982077 0.567790
			CHANNELS 3 Xrotation Yrotation Zrotation
			JOINT LeftFoot
			{
				OFFSET -0.708756 -10.717838 -2.184338
				CHANNELS 3 Xrotation Yrotation Zrotation
				JOINT LeftToeBase
				{
					OFFSET 0.108149 -7.191104 7.560241
					CHANNELS 3 Xrotation Yrotation Zrotation
					JOINT LeftToe_End
					{
						OFFSET 0.070230 0.081724 4.490308
						CHANNELS 3 Xrotation Yrotation Zrotation
						End Site
						{
							OFFSET 0.000000 0.000000 0.000000
						}
					}
				}
			}
		}
	}
	JOINT RightUpLeg
	{
		OFFSET -10.205400 -3.823500 0.005500
		CHANNELS 3 Xrotation Yrotation Zrotation
		JOINT RightLeg
		{
			OFFSET -0.708756 -12.982134 0.610632
			CHANNELS 3 Xrotation Yrotation Zrotation
			JOINT RightFoot
			{
				OFFSET 0.708754 -10.717769 -1.945823
				CHANNELS 3 Xrotation Yrotation Zrotation
				JOINT RightToeBase
				{
					OFFSET -0.108140 -7.191069 7.372968
					CHANNELS 3 Xrotation Yrotation Zrotation
					JOINT RightToe_End
					{
						OFFSET -0.070227 0.081735 4.479403
						CHANNELS 3 Xrotation Yrotation Zrotation
						End Site
						{
							OFFSET 0.000000 0.000000 0.000000
						}
					}
				}
			}
		}
	}
}
MOTION
Frames: 6
Frame Time: 0.016667
0.320727 20.622192 7.168210 0.146411 0.062414 0.892960 10.429964 0.126338 -1.519187 -0.199257 0.213327 -0.355463 0.000000 0.000000 0.000000 -0.199582 0.248526 -0.300880 -1.001767 -1.284342 0.469464 -8.883496 -4.327063 -5.321560 -0.000000 -0.000000 -0.000001 0.823513 -15.262046 -7.868734 0.000000 0.000000 0.000000 4.746704 -21.216429 -54.862241 0.000037 -62.197513 0.000029 31.062970 4.315217 41.770230 6.610610 1.798228 20.801498 2.716388 20.172593 -24.389166 -5.537267 29.849539 5.070912 -0.000001 0.000003 -0.000002 -0.235311 2.798398 -26.913116 0.396812 2.121272 -21.189296 0.083141 0.984452 -9.653146 -0.000000 0.000001 -0.000002 1.299145 7.334324 -16.511084 0.329941 1.940077 -19.302241 0.233118 1.637777 -16.201253 0.000000 0.000003 -0.000001 1.797283 9.807942 -14.184131 0.205918 1.541079 -15.220201 0.265322 1.744711 -17.292062 -0.000002 0.000001 0.000001 3.171096 -4.378719 8.782977 0.000000 0.000000 0.000000 -3.950255 37.253385 63.733636 -0.000006 55.137949 0.000007 43.537306 4.741008 -36.277952 -9.383527 -1.613325 -17.604714 3.557062 -24.337021 34.656844 -6.608447 -37.497332 -11.176175 0.000003 0.000002 -0.000000 2.957832 1.012890 13.530000 0.472459 -2.045697 26.006741 0.059763 -0.744417 9.177792 0.000001 0.000001 -0.000001 0.105537 -3.664953 2.525402 0.584993 -2.261688 29.000444 0.020465 -0.436585 5.367140 -0.000000 0.000001 0.000000 0.456446 -7.644277 4.306133 0.107465 -0.995703 12.318841 0.072392 -0.818808 10.104461 -0.000004 0.000000 0.000001 -89.275094 -11.585649 17.433093 89.693552 -1.237816 -0.776971 1.817051 -5.698359 -11.326760 -0.103120 0.000005 -0.000003 0.000000 -0.000002 -0.000000 -90.863052 13.465166 -13.926644 91.650545 2.345676 -0.975569 1.987456 -1.503596 12.892820 -0.191613 0.000004 0.000000 0.000000 0.000001 0.000000 
0.314542 20.634338 7.127486 -0.412006 0.041352 0.985819 10.212288 0.098728 -1.514603 0.247319 0.210143 -0.363243 0.000000 0.000000 0.000000 0.247051 0.242483 -0.311429 -0.863848 -1.257151 0.466748 -9.376977 -4.249638 -5.115972 -0.000000 -0.000000 0.000000 0.823214 -15.329316 -7.716536 0.000000 0.000000 0.000000 4.455898 -21.455909 -54.700854 -0.000005 -61.301255 0.000002 31.122372 4.160801 41.654383 7.239332 2.016972 20.046612 2.611782 19.816542 -24.507494 -5.747147 29.560075 5.256806 -0.000003 -0.000001 -0.000007 -0.214976 2.733562 -26.352485 0.412457 2.161180 -21.608041 0.074604 0.932912 -9.143222 -0.000002 -0.000003 0.000002 1.260140 7.277780 -16.156643 0.350253 1.997092 -19.893279 0.225087 1.609859 -15.917568 0.000001 0.000000 0.000002 1.754425 9.708196 -14.032342 0.229568 1.625503 -16.076474 0.246843 1.684244 -16.674561 -0.000000 0.000001 0.000001 3.130751 -4.188125 9.128720 0.000000 0.000000 0.000000 -3.788749 37.492428 62.416680 0.000015 54.701428 -0.000014 38.426094 6.434217 -35.338770 -9.061928 -1.287282 -15.921448 3.457706 -24.287015 33.909970 -6.735794 -36.930662 -11.141181 0.000004 0.000000 -0.000000 2.928266 1.054579 13.023769 0.477718 -2.056465 26.153957 0.054182 -0.709083 8.738827 0.000000 -0.000002 0.000002 0.100439 -3.662350 2.284178 0.616267 -2.317160 29.783286 0.019161 -0.422522 5.193903 0.000001 0.000002 -0.000000 0.445615 -7.590681 4.231998 0.120854 -1.055146 13.066948 0.071855 -0.815787 10.066635 0.000001 -0.000001 -0.000001 -88.593844 -11.417442 17.472047 89.570869 -1.240280 -0.776267 1.809137 -5.698483 -11.295305 -0.103117 0.000008 -0.000004 0.000000 -0.000002 -0.000000 -90.368771 13.428429 -14.012358 91.636167 2.445054 -0.981405 2.030133 -1.494716 12.753281 -0.191615 0.000004 0.000001 0.000000 0.000000 -0.000000 
0.309631 20.648811 7.088973 -0.954787 0.030517 1.074013 10.001566 0.075488 -1.506972 0.733888 0.214279 -0.373962 0.000000 0.000000 0.000000 0.733709 0.243699 -0.324692 -0.761075 -1.231934 0.475966 -10.032740 -4.165827 -4.919811 -0.000000 -0.000000 -0.000000 0.826513 -15.600738 -7.588838 0.000000 0.000000 0.000000 4.308924 -21.403924 -54.419778 0.000023 -61.023758 0.000037 30.015444 3.616480 41.129552 7.896429 2.237054 19.250675 2.502420 19.443476 -24.632763 -5.966427 29.255486 5.449308 0.000001 0.000003 0.000002 -0.192909 2.666134 -25.764486 0.429189 2.202889 -22.047210 0.066137 0.878788 -8.608471 0.000002 -0.000002 -0.000001 1.219822 7.218229 -15.785018 0.372179 2.056632 -20.513199 0.216812 1.580543 -15.620060 0.000001 -0.000001 -0.000002 1.710055 9.602940 -13.874535 0.255656 1.713407 -16.971931 0.228157 1.620633 -16.026976 0.000001 0.000001 -0.000000 3.082114 -3.976040 9.440651 0.000000 0.000000 0.000000 -3.601778 37.650762 61.027406 -0.000019 54.399011 0.000027 33.444267 7.545293 -34.227297 -8.709554 -0.935001 -14.170923 3.357939 -24.234191 33.129143 -6.869788 -36.336630 -11.102358 -0.000004 -0.000000 -0.000000 2.897925 1.099074 12.492948 0.483291 -2.067730 26.308366 0.048644 -0.672007 8.278402 -0.000000 -0.000000 0.000002 0.095046 -3.659471 2.031257 0.649814 -2.374758 30.602673 0.017865 -0.407779 5.012210 -0.000000 -0.000000 -0.000002 0.434448 -7.534143 4.154906 0.135694 -1.117130 13.849626 0.071269 -0.812588 10.026959 0.000002 -0.000002 0.000002 -87.932197 -11.242446 17.496595 89.434196 -1.240859 -0.774219 1.813271 -5.702684 -11.245266 -0.103115 0.000005 -0.000003 -0.000000 -0.000000 0.000000 -89.864635 13.395900 -14.107483 91.622207 2.536839 -0.986884 2.053471 -1.489178 12.629424 -0.191611 0.000005 0.000001 0.000000 0.000000 -0.000000 
0.305706 20.665447 7.050177 -1.482097 0.024278 1.160251 9.796019 0.054362 -1.497763 1.248925 0.222378 -0.387396 0.000000 0.000000 0.000000 1.248842 0.248825 -0.340489 -0.681241 -1.208184 0.490105 -10.819937 -4.081877 -4.732362 -0.000000 0.000000 -0.000000 0.832463 -15.979342 -7.489302 0.000000 0.000000 0.000000 4.238264 -21.173436 -54.038876 -0.000023 -61.236683 -0.000024 28.124129 2.741978 40.412324 8.575135 2.451597 18.424813 2.389373 19.058775 -24.763348 -6.191566 28.940061 5.645581 -0.000002 -0.000006 0.000001 -0.169355 2.597102 -25.157453 0.446792 2.245835 -22.500622 0.057949 0.822819 -8.056404 0.000001 0.000001 0.000001 1.178806 7.156437 -15.401470 0.395503 2.117833 -21.153207 0.208411 1.550221 -15.312953 0.000001 0.000000 0.000001 1.664852 9.493855 -13.712409 0.284002 1.803609 -17.895357 0.209636 1.554718 -15.358483 -0.000001 -0.000001 0.000005 3.026188 -3.737173 9.732000 0.000000 0.000000 0.000000 -3.408158 37.697600 59.557556 -0.000021 54.333390 0.000017 28.528898 8.185315 -32.859873 -8.343291 -0.556698 -12.373154 3.258103 -24.179402 32.324355 -7.008211 -35.723638 -11.060078 0.000003 -0.000003 0.000001 2.867313 1.145886 11.944990 0.489053 -2.079353 26.467782 0.043227 -0.633674 7.803142 -0.000002 0.000001 -0.000000 0.089401 -3.656418 1.770170 0.685264 -2.433666 31.448056 0.016543 -0.392564 4.824656 0.000001 0.000001 0.000002 0.423086 -7.475552 4.075706 0.151872 -1.180831 14.656906 0.070707 -0.809315 9.985949 0.000000 -0.000000 0.000001 -87.285276 -11.060445 17.509480 89.280797 -1.232645 -0.771632 1.830700 -5.708893 -11.185721 -0.103118 0.000005 -0.000004 0.000000 -0.000001 -0.000000 -89.361414 13.364634 -14.206067 91.593212 2.622886 -0.992863 2.079993 -1.482982 12.510459 -0.191616 0.000006 0.000002 0.000000 0.000000 -0.000000 
0.303320 20.683319 7.011242 -1.985752 0.020910 1.245032 9.596673 0.034945 -1.486967 1.797857 0.233732 -0.404631 0.000000 0.000000 0.000000 1.797882 0.257127 -0.359928 -0.626301 -1.186259 0.506581 -11.780736 -4.001937 -4.557547 -0.000000 -0.000000 -0.000000 0.840291 -16.448574 -7.432445 0.000000 0.000000 0.000000 4.228448 -20.759388 -53.522971 -0.000018 -62.090326 0.000019 25.349110 1.431041 39.557013 9.278076 2.661789 17.563008 2.272188 18.660210 -24.900109 -6.424227 28.611983 5.846449 -0.000004 0.000006 0.000002 -0.144081 2.526189 -24.527908 0.465397 2.290213 -22.970874 0.050010 0.764707 -7.483925 -0.000000 -0.000003 -0.000001 1.136938 7.092046 -15.003791 0.420391 2.181051 -21.816995 0.199893 1.518759 -14.994461 0.000001 0.000003 0.000000 1.618628 9.380312 -13.544990 0.314890 1.896558 -18.852400 0.191253 1.486159 -14.665285 -0.000003 -0.000003 0.000001 2.961172 -3.453755 10.001667 0.000000 0.000000 0.000000 -3.229674 37.555344 57.967016 0.000021 54.696623 -0.000014 23.719280 8.224989 -31.050481 -7.953246 -0.149557 -10.520859 3.158586 -24.122167 31.491072 -7.151947 -35.088277 -11.013742 0.000003 -0.000002 0.000005 2.836339 1.195271 11.376838 0.495066 -2.091389 26.633107 0.037945 -0.593874 7.310249 -0.000001 0.000001 -0.000000 0.083478 -3.653152 1.499470 0.722944 -2.494169 32.324464 0.015226 -0.376762 4.630145 0.000002 0.000001 -0.000001 0.411467 -7.414619 3.993961 0.169609 -1.246620 15.493618 0.070105 -0.805905 9.943451 -0.000002 -0.000001 -0.000002 -86.660771 -10.876123 17.512696 89.115705 -1.219704 -0.769067 1.856663 -5.715256 -11.124974 -0.103122 0.000005 -0.000003 -0.000000 -0.000001 0.000000 -88.870112 13.337750 -14.308148 91.551220 2.706664 -0.998858 2.110555 -1.477110 12.401956 -0.191615 0.000006 0.000000 0.000000 0.000000 -0.000000 
0.301693 20.700699 6.972826 -2.456841 0.017497 1.328960 9.403584 0.016275 -1.475028 2.381655 0.246926 -0.426643 0.000000 0.000000 0.000000 2.381782 0.267163 -0.384018 -0.592847 -1.166320 0.521175 -12.942665 -3.930740 -4.398574 -0.000000 -0.000000 -0.000000 0.848220 -16.967296 -7.426428 0.000000 0.000000 0.000000 4.236625 -20.197824 -52.840119 0.000020 -63.689725 0.000029 21.755735 -0.374030 38.656456 10.005348 2.867197 16.663215 2.150890 18.247373 -25.043331 -6.664901 28.270804 6.051746 -0.000003 -0.000004 0.000001 -0.117002 2.453399 -23.875090 0.485071 2.336037 -23.458507 0.042403 0.704358 -6.890351 0.000002 -0.000002 0.000000 1.094298 7.024975 -14.591499 0.446978 2.246265 -22.505318 0.191230 1.486059 -14.664245 -0.000001 0.000003 -0.000001 1.571405 9.262239 -13.371936 0.348557 1.992396 -19.844572 0.173054 1.414845 -13.946573 -0.000000 -0.000002 0.000003 2.885689 -3.106089 10.255150 0.000000 0.000000 0.000000 -3.095251 37.156550 56.214048 0.000029 55.701965 -0.000032 19.100443 7.545005 -28.668534 -7.534117 0.288775 -8.614258 3.059958 -24.062476 30.628252 -7.301236 -34.429884 -10.962853 -0.000004 -0.000002 -0.000002 2.805074 1.247391 10.787779 0.501341 -2.103836 26.804526 0.032829 -0.552567 6.799190 0.000001 -0.000000 0.000001 0.077252 -3.649703 1.218751 0.762994 -2.556300 33.233248 0.013946 -0.360365 4.428439 0.000001 0.000000 0.000001 0.399653 -7.351292 3.909493 0.188990 -1.314542 16.361047 0.069489 -0.802366 9.899381 -0.000001 -0.000000 0.000003 -86.070287 -10.695340 17.508442 88.950407 -1.201181 -0.767335 1.885025 -5.719460 -11.071646 -0.103118 0.000006 -0.000003 0.000000 -0.000001 -0.000000 -88.407079 13.319422 -14.412468 91.504270 2.791908 -1.004636 2.144379 -1.471980 12.306518 -0.191614 0.000003 -0.000000 0.000000 0.000000 0.000000 
